<svg width="42" height="42" viewBox="0 0 42 42" fill="none" xmlns="http://www.w3.org/2000/svg">
<circle cx="21" cy="21.0001" r="20.5" stroke="black"/>
<path d="M16.1522 20.3479C15.792 20.3479 15.5 20.6399 15.5 21.0001C15.5 21.3603 15.792 21.6523 16.1522 21.6523V20.3479ZM20.5 21.6523C20.8602 21.6523 21.1522 21.3603 21.1522 21.0001C21.1522 20.6399 20.8602 20.3479 20.5 20.3479V21.6523ZM20.5 20.3479C20.1398 20.3479 19.8478 20.6399 19.8478 21.0001C19.8478 21.3603 20.1398 21.6523 20.5 21.6523V20.3479ZM24.8478 21.6523C25.208 21.6523 25.5 21.3603 25.5 21.0001C25.5 20.6399 25.208 20.3479 24.8478 20.3479V21.6523ZM21.1522 21.0001C21.1522 20.6399 20.8602 20.3479 20.5 20.3479C20.1398 20.3479 19.8478 20.6399 19.8478 21.0001H21.1522ZM19.8478 25.3479C19.8478 25.7081 20.1398 26.0001 20.5 26.0001C20.8602 26.0001 21.1522 25.7081 21.1522 25.3479H19.8478ZM19.8478 21.0001C19.8478 21.3603 20.1398 21.6523 20.5 21.6523C20.8602 21.6523 21.1522 21.3603 21.1522 21.0001H19.8478ZM21.1522 16.6523C21.1522 16.2921 20.8602 16.0001 20.5 16.0001C20.1398 16.0001 19.8478 16.2921 19.8478 16.6523H21.1522ZM16.1522 21.6523H20.5V20.3479H16.1522V21.6523ZM20.5 21.6523H24.8478V20.3479H20.5V21.6523ZM20.5 21.0001H19.8478V21.001C19.8478 21.0011 19.8478 21.002 19.8478 21.002C19.8478 21.0019 19.8478 21.0021 19.8478 21.002C19.8478 21.002 19.8478 21.003 19.8478 21.0031C19.8478 21.003 19.8478 21.0031 19.8478 21.0031C19.8478 21.0031 19.8478 21.0038 19.8478 21.0039C19.8478 21.004 19.8478 21.0048 19.8478 21.0049C19.8478 21.005 19.8478 21.0057 19.8478 21.0058C19.8478 21.0058 19.8478 21.0066 19.8478 21.0068C19.8478 21.0069 19.8478 21.0077 19.8478 21.0078C19.8478 21.0079 19.8478 21.0089 19.8478 21.009C19.8478 21.0088 19.8478 21.0091 19.8478 21.009C19.8478 21.0091 19.8478 21.0097 19.8478 21.0098C19.8478 21.0097 19.8478 21.01 19.8478 21.0098C19.8478 21.01 19.8478 21.0106 19.8478 21.0107C19.8478 21.0105 19.8478 21.0109 19.8478 21.0107C19.8478 21.0109 19.8478 21.0115 19.8478 21.0117C19.8478 21.0115 19.8478 21.0118 19.8478 21.0117C19.8478 21.0118 19.8478 21.0125 19.8478 21.0127C19.8478 21.0125 19.8478 21.0129 19.8478 21.0127C19.8478 21.0129 19.8478 21.0136 19.8478 21.0138C19.8478 21.0135 19.8478 21.0139 19.8478 21.0138C19.8478 21.0139 19.8478 21.0147 19.8478 21.0149C19.8478 21.0147 19.8478 21.0151 19.8478 21.0149C19.8478 21.0151 19.8478 21.0158 19.8478 21.0161C19.8478 21.0158 19.8478 21.0163 19.8478 21.0161C19.8478 21.0163 19.8478 21.0172 19.8478 21.0173C19.8478 21.0172 19.8478 21.0175 19.8478 21.0173C19.8478 21.0176 19.8478 21.0184 19.8478 21.0186C19.8478 21.0184 19.8478 21.0189 19.8478 21.0186C19.8478 21.0188 19.8478 21.0198 19.8478 21.02C19.8478 21.0198 19.8478 21.0202 19.8478 21.02C19.8478 21.0203 19.8478 21.0212 19.8478 21.0214C19.8478 21.0212 19.8478 21.0217 19.8478 21.0214C19.8478 21.0217 19.8478 21.0227 19.8478 21.023C19.8478 21.0227 19.8478 21.0232 19.8478 21.023C19.8478 21.0232 19.8478 21.0243 19.8478 21.0245C19.8478 21.0243 19.8478 21.0248 19.8478 21.0245C19.8478 21.0248 19.8478 21.0258 19.8478 21.0262C19.8478 21.0259 19.8478 21.0265 19.8478 21.0262C19.8478 21.0265 19.8478 21.0276 19.8478 21.0278C19.8478 21.0282 19.8478 21.0285 19.8478 21.0288C19.8478 21.0291 19.8478 21.0293 19.8478 21.0297C19.8478 21.03 19.8478 21.0303 19.8478 21.0306C19.8478 21.0309 19.8478 21.0312 19.8478 21.0315C19.8478 21.0318 19.8478 21.0322 19.8478 21.0325C19.8478 21.0328 19.8478 21.0331 19.8478 21.0335C19.8478 21.0338 19.8478 21.0341 19.8478 21.0345C19.8478 21.0348 19.8478 21.0352 19.8478 21.0355C19.8478 21.0358 19.8478 21.0362 19.8478 21.0365C19.8478 21.0369 19.8478 21.0372 19.8478 21.0376C19.8478 21.0379 19.8478 21.0384 19.8478 21.0387C19.8478 21.0391 19.8478 21.0394 19.8478 21.0398C19.8478 21.0402 19.8478 21.0405 19.8478 21.0409C19.8478 21.0413 19.8478 21.0417 19.8478 21.042C19.8478 21.0425 19.8478 21.0428 19.8478 21.0432C19.8478 21.0436 19.8478 21.044 19.8478 21.0444C19.8478 21.0448 19.8478 21.0452 19.8478 21.0456C19.8478 21.046 19.8478 21.0465 19.8478 21.0469C19.8478 21.0472 19.8478 21.0477 19.8478 21.0481C19.8478 21.0485 19.8478 21.049 19.8478 21.0494C19.8478 21.0498 19.8478 21.0502 19.8478 21.0506C19.8478 21.0511 19.8478 21.0516 19.8478 21.052C19.8478 21.0525 19.8478 21.0529 19.8478 21.0533C19.8478 21.0538 19.8478 21.0542 19.8478 21.0547C19.8478 21.0552 19.8478 21.0556 19.8478 21.0561C19.8478 21.0565 19.8478 21.0571 19.8478 21.0575C19.8478 21.0579 19.8478 21.0585 19.8478 21.0589C19.8478 21.0594 19.8478 21.0599 19.8478 21.0604C19.8478 21.0609 19.8478 21.0614 19.8478 21.0618C19.8478 21.0624 19.8478 21.0629 19.8478 21.0634C19.8478 21.0638 19.8478 21.0644 19.8478 21.0649C19.8478 21.0654 19.8478 21.0659 19.8478 21.0665C19.8478 21.067 19.8478 21.0675 19.8478 21.068C19.8478 21.0685 19.8478 21.0691 19.8478 21.0697C19.8478 21.0702 19.8478 21.0707 19.8478 21.0712C19.8478 21.0718 19.8478 21.0724 19.8478 21.0729C19.8478 21.0735 19.8478 21.074 19.8478 21.0746C19.8478 21.0752 19.8478 21.0758 19.8478 21.0763C19.8478 21.0769 19.8478 21.0775 19.8478 21.078C19.8478 21.0786 19.8478 21.0792 19.8478 21.0798C19.8478 21.0804 19.8478 21.081 19.8478 21.0816C19.8478 21.0822 19.8478 21.0828 19.8478 21.0834C19.8478 21.084 19.8478 21.0846 19.8478 21.0852C19.8478 21.0858 19.8478 21.0865 19.8478 21.0871C19.8478 21.0878 19.8478 21.0884 19.8478 21.089C19.8478 21.0897 19.8478 21.0903 19.8478 21.0909C19.8478 21.0916 19.8478 21.0922 19.8478 21.0929C19.8478 21.0935 19.8478 21.0942 19.8478 21.0948C19.8478 21.0955 19.8478 21.0962 19.8478 21.0968C19.8478 21.0975 19.8478 21.0982 19.8478 21.0989C19.8478 21.0996 19.8478 21.1002 19.8478 21.1009C19.8478 21.1016 19.8478 21.1023 19.8478 21.103C19.8478 21.1037 19.8478 21.1045 19.8478 21.1052C19.8478 21.1058 19.8478 21.1065 19.8478 21.1072C19.8478 21.108 19.8478 21.1087 19.8478 21.1094C19.8478 21.1102 19.8478 21.1109 19.8478 21.1117C19.8478 21.1124 19.8478 21.1132 19.8478 21.1138C19.8478 21.1146 19.8478 21.1154 19.8478 21.1161C19.8478 21.1169 19.8478 21.1177 19.8478 21.1185C19.8478 21.1192 19.8478 21.1199 19.8478 21.1207C19.8478 21.1215 19.8478 21.1223 19.8478 21.1231C19.8478 21.1238 19.8478 21.1246 19.8478 21.1255C19.8478 21.1263 19.8478 21.1271 19.8478 21.1278C19.8478 21.1287 19.8478 21.1295 19.8478 21.1303C19.8478 21.1312 19.8478 21.1319 19.8478 21.1328C19.8478 21.1336 19.8478 21.1345 19.8478 21.1353C19.8478 21.1361 19.8478 21.137 19.8478 21.1378C19.8478 21.1387 19.8478 21.1395 19.8478 21.1404C19.8478 21.1412 19.8478 21.1421 19.8478 21.143C19.8478 21.1438 19.8478 21.1447 19.8478 21.1456C19.8478 21.1465 19.8478 21.1474 19.8478 21.1483C19.8478 21.1491 19.8478 21.1501 19.8478 21.151C19.8478 21.1518 19.8478 21.1528 19.8478 21.1537C19.8478 21.1546 19.8478 21.1555 19.8478 21.1565C19.8478 21.1574 19.8478 21.1583 19.8478 21.1592C19.8478 21.1602 19.8478 21.1612 19.8478 21.1621C19.8478 21.1631 19.8478 21.164 19.8478 21.165C19.8478 21.1659 19.8478 21.1669 19.8478 21.1678C19.8478 21.1688 19.8478 21.1698 19.8478 21.1707C19.8478 21.1718 19.8478 21.1727 19.8478 21.1738C19.8478 21.1747 19.8478 21.1757 19.8478 21.1767C19.8478 21.1777 19.8478 21.1787 19.8478 21.1798C19.8478 21.1807 19.8478 21.1818 19.8478 21.1828C19.8478 21.1838 19.8478 21.1849 19.8478 21.1859C19.8478 21.187 19.8478 21.188 19.8478 21.1891C19.8478 21.1901 19.8478 21.1911 19.8478 21.1922C19.8478 21.1932 19.8478 21.1943 19.8478 21.1954C19.8478 21.1965 19.8478 21.1976 19.8478 21.1986C19.8478 21.1998 19.8478 21.2008 19.8478 21.2019C19.8478 21.203 19.8478 21.2041 19.8478 21.2052C19.8478 21.2063 19.8478 21.2074 19.8478 21.2085C19.8478 21.2097 19.8478 21.2108 19.8478 21.2119C19.8478 21.2131 19.8478 21.2142 19.8478 21.2153C19.8478 21.2165 19.8478 21.2177 19.8478 21.2188C19.8478 21.2199 19.8478 21.2211 19.8478 21.2223C19.8478 21.2235 19.8478 21.2246 19.8478 21.2258C19.8478 21.227 19.8478 21.2282 19.8478 21.2294C19.8478 21.2305 19.8478 21.2318 19.8478 21.233C19.8478 21.2342 19.8478 21.2354 19.8478 21.2366C19.8478 21.2378 19.8478 21.2391 19.8478 21.2403C19.8478 21.2415 19.8478 21.2428 19.8478 21.244C19.8478 21.2452 19.8478 21.2465 19.8478 21.2478C19.8478 21.2491 19.8478 21.2503 19.8478 21.2516C19.8478 21.2528 19.8478 21.2541 19.8478 21.2554C19.8478 21.2567 19.8478 21.2579 19.8478 21.2592C19.8478 21.2605 19.8478 21.2618 19.8478 21.2631C19.8478 21.2645 19.8478 21.2658 19.8478 21.2672C19.8478 21.2685 19.8478 21.2698 19.8478 21.2711C19.8478 21.2725 19.8478 21.2738 19.8478 21.2752C19.8478 21.2765 19.8478 21.2778 19.8478 21.2792C19.8478 21.2805 19.8478 21.2819 19.8478 21.2833C19.8478 21.2846 19.8478 21.286 19.8478 21.2874C19.8478 21.2888 19.8478 21.2902 19.8478 21.2916C19.8478 21.293 19.8478 21.2945 19.8478 21.2958C19.8478 21.2972 19.8478 21.2987 19.8478 21.3001C19.8478 21.3015 19.8478 21.303 19.8478 21.3045C19.8478 21.3058 19.8478 21.3073 19.8478 21.3088C19.8478 21.3102 19.8478 21.3117 19.8478 21.3131C19.8478 21.3146 19.8478 21.3161 19.8478 21.3176C19.8478 21.3191 19.8478 21.3205 19.8478 21.322C19.8478 21.3236 19.8478 21.3251 19.8478 21.3265C19.8478 21.3281 19.8478 21.3296 19.8478 21.3312C19.8478 21.3326 19.8478 21.3342 19.8478 21.3357C19.8478 21.3372 19.8478 21.3388 19.8478 21.3404C19.8478 21.3419 19.8478 21.3435 19.8478 21.3451C19.8478 21.3466 19.8478 21.3482 19.8478 21.3498C19.8478 21.3513 19.8478 21.3529 19.8478 21.3545C19.8478 21.3561 19.8478 21.3578 19.8478 21.3593C19.8478 21.361 19.8478 21.3625 19.8478 21.3642C19.8478 21.3658 19.8478 21.3674 19.8478 21.3691C19.8478 21.3707 19.8478 21.3724 19.8478 21.374C19.8478 21.3757 19.8478 21.3773 19.8478 21.3791C19.8478 21.3807 19.8478 21.3824 19.8478 21.384C19.8478 21.3858 19.8478 21.3874 19.8478 21.3892C19.8478 21.3908 19.8478 21.3925 19.8478 21.3943C19.8478 21.3959 19.8478 21.3977 19.8478 21.3994C19.8478 21.4012 19.8478 21.4029 19.8478 21.4046C19.8478 21.4064 19.8478 21.4081 19.8478 21.4098C19.8478 21.4116 19.8478 21.4134 19.8478 21.4151C19.8478 21.417 19.8478 21.4187 19.8478 21.4205C19.8478 21.4223 19.8478 21.4241 19.8478 21.4259C19.8478 21.4277 19.8478 21.4295 19.8478 21.4313C19.8478 21.4332 19.8478 21.435 19.8478 21.4368C19.8478 21.4386 19.8478 21.4405 19.8478 21.4424C19.8478 21.4442 19.8478 21.446 19.8478 21.4479C19.8478 21.4498 19.8478 21.4517 19.8478 21.4535C19.8478 21.4554 19.8478 21.4573 19.8478 21.4592C19.8478 21.4611 19.8478 21.463 19.8478 21.4649C19.8478 21.4668 19.8478 21.4687 19.8478 21.4707C19.8478 21.4726 19.8478 21.4745 19.8478 21.4765C19.8478 21.4785 19.8478 21.4804 19.8478 21.4824C19.8478 21.4843 19.8478 21.4863 19.8478 21.4883C19.8478 21.4902 19.8478 21.4922 19.8478 21.4942C19.8478 21.4962 19.8478 21.4982 19.8478 21.5002C19.8478 21.5022 19.8478 21.5042 19.8478 21.5063C19.8478 21.5083 19.8478 21.5103 19.8478 21.5124C19.8478 21.5144 19.8478 21.5165 19.8478 21.5185C19.8478 21.5205 19.8478 21.5226 19.8478 21.5247C19.8478 21.5268 19.8478 21.5289 19.8478 21.531C19.8478 21.5331 19.8478 21.5351 19.8478 21.5372C19.8478 21.5393 19.8478 21.5415 19.8478 21.5436C19.8478 21.5457 19.8478 21.5478 19.8478 21.55C19.8478 21.5521 19.8478 21.5543 19.8478 21.5565C19.8478 21.5585 19.8478 21.5607 19.8478 21.5629C19.8478 21.5651 19.8478 21.5672 19.8478 21.5695C19.8478 21.5717 19.8478 21.5738 19.8478 21.576C19.8478 21.5783 19.8478 21.5805 19.8478 21.5827C19.8478 21.5849 19.8478 21.5872 19.8478 21.5894C19.8478 21.5917 19.8478 21.5938 19.8478 21.5961C19.8478 21.5984 19.8478 21.6006 19.8478 21.603C19.8478 21.6052 19.8478 21.6075 19.8478 21.6098C19.8478 21.6121 19.8478 21.6144 19.8478 21.6167C19.8478 21.619 19.8478 21.6213 19.8478 21.6237C19.8478 21.626 19.8478 21.6283 19.8478 21.6306C19.8478 21.633 19.8478 21.6353 19.8478 21.6377C19.8478 21.6401 19.8478 21.6425 19.8478 21.6448C19.8478 21.6472 19.8478 21.6496 19.8478 21.652C19.8478 21.6544 19.8478 21.6568 19.8478 21.6592C19.8478 21.6616 19.8478 21.664 19.8478 21.6665C19.8478 21.6689 19.8478 21.6713 19.8478 21.6738C19.8478 21.6763 19.8478 21.6787 19.8478 21.6812C19.8478 21.6837 19.8478 21.6861 19.8478 21.6886C19.8478 21.6911 19.8478 21.6936 19.8478 21.6961C19.8478 21.6986 19.8478 21.7011 19.8478 21.7036C19.8478 21.7061 19.8478 21.7087 19.8478 21.7112C19.8478 21.7138 19.8478 21.7163 19.8478 21.7189C19.8478 21.7214 19.8478 21.724 19.8478 21.7265C19.8478 21.7291 19.8478 21.7318 19.8478 21.7343C19.8478 21.7369 19.8478 21.7395 19.8478 21.7421C19.8478 21.7447 19.8478 21.7473 19.8478 21.75C19.8478 21.7526 19.8478 21.7552 19.8478 21.7579C19.8478 21.7605 19.8478 21.7632 19.8478 21.7659C19.8478 21.7685 19.8478 21.7712 19.8478 21.7739C19.8478 21.7766 19.8478 21.7793 19.8478 21.782C19.8478 21.7847 19.8478 21.7874 19.8478 21.7902C19.8478 21.7929 19.8478 21.7956 19.8478 21.7984C19.8478 21.8011 19.8478 21.8038 19.8478 21.8066C19.8478 21.8094 19.8478 21.8122 19.8478 21.815C19.8478 21.8177 19.8478 21.8205 19.8478 21.8233C19.8478 21.8261 19.8478 21.8289 19.8478 21.8318C19.8478 21.8345 19.8478 21.8374 19.8478 21.8402C19.8478 21.8431 19.8478 21.8459 19.8478 21.8488C19.8478 21.8516 19.8478 21.8545 19.8478 21.8573C19.8478 21.8603 19.8478 21.8632 19.8478 21.866C19.8478 21.8689 19.8478 21.8718 19.8478 21.8747C19.8478 21.8777 19.8478 21.8805 19.8478 21.8835C19.8478 21.8865 19.8478 21.8894 19.8478 21.8924C19.8478 21.8953 19.8478 21.8983 19.8478 21.9012C19.8478 21.9042 19.8478 21.9072 19.8478 21.9102C19.8478 21.9132 19.8478 21.9162 19.8478 21.9192C19.8478 21.9222 19.8478 21.9252 19.8478 21.9283C19.8478 21.9313 19.8478 21.9344 19.8478 21.9374C19.8478 21.9405 19.8478 21.9435 19.8478 21.9466C19.8478 21.9497 19.8478 21.9527 19.8478 21.9558C19.8478 21.959 19.8478 21.962 19.8478 21.9652C19.8478 21.9683 19.8478 21.9714 19.8478 21.9745C19.8478 21.9777 19.8478 21.9808 19.8478 21.9839C19.8478 21.9871 19.8478 21.9903 19.8478 21.9934C19.8478 21.9966 19.8478 21.9998 19.8478 22.003C19.8478 22.0062 19.8478 22.0094 19.8478 22.0126C19.8478 22.0158 19.8478 22.0191 19.8478 22.0223C19.8478 22.0255 19.8478 22.0287 19.8478 22.032C19.8478 22.0352 19.8478 22.0385 19.8478 22.0418C19.8478 22.0451 19.8478 22.0484 19.8478 22.0517C19.8478 22.055 19.8478 22.0583 19.8478 22.0616C19.8478 22.0649 19.8478 22.0682 19.8478 22.0716C19.8478 22.0749 19.8478 22.0783 19.8478 22.0816C19.8478 22.085 19.8478 22.0884 19.8478 22.0918C19.8478 22.0951 19.8478 22.0985 19.8478 22.1019C19.8478 22.1053 19.8478 22.1087 19.8478 22.1121C19.8478 22.1156 19.8478 22.119 19.8478 22.1225C19.8478 22.1258 19.8478 22.1293 19.8478 22.1328C19.8478 22.1363 19.8478 22.1398 19.8478 22.1432C19.8478 22.1467 19.8478 22.1502 19.8478 22.1537C19.8478 22.1572 19.8478 22.1607 19.8478 22.1643C19.8478 22.1678 19.8478 22.1713 19.8478 22.1749C19.8478 22.1784 19.8478 22.1819 19.8478 22.1855C19.8478 22.1892 19.8478 22.1927 19.8478 22.1963C19.8478 22.1998 19.8478 22.2035 19.8478 22.2071C19.8478 22.2107 19.8478 22.2144 19.8478 22.2179C19.8478 22.2216 19.8478 22.2252 19.8478 22.2289C19.8478 22.2325 19.8478 22.2362 19.8478 22.2399C19.8478 22.2436 19.8478 22.2472 19.8478 22.251C19.8478 22.2547 19.8478 22.2584 19.8478 22.2621C19.8478 22.2658 19.8478 22.2696 19.8478 22.2733C19.8478 22.2771 19.8478 22.2808 19.8478 22.2845C19.8478 22.2884 19.8478 22.2921 19.8478 22.2959C19.8478 22.2997 19.8478 22.3035 19.8478 22.3073C19.8478 22.3111 19.8478 22.315 19.8478 22.3188C19.8478 22.3226 19.8478 22.3265 19.8478 22.3303C19.8478 22.3342 19.8478 22.338 19.8478 22.3419C19.8478 22.3458 19.8478 22.3497 19.8478 22.3536C19.8478 22.3575 19.8478 22.3614 19.8478 22.3653C19.8478 22.3692 19.8478 22.3732 19.8478 22.3772C19.8478 22.3811 19.8478 22.3851 19.8478 22.389C19.8478 22.393 19.8478 22.397 19.8478 22.4009C19.8478 22.4049 19.8478 22.4089 19.8478 22.413C19.8478 22.417 19.8478 22.421 19.8478 22.425C19.8478 22.4291 19.8478 22.4331 19.8478 22.4372C19.8478 22.4412 19.8478 22.4453 19.8478 22.4494C19.8478 22.4534 19.8478 22.4576 19.8478 22.4617C19.8478 22.4658 19.8478 22.4698 19.8478 22.474C19.8478 22.4781 19.8478 22.4823 19.8478 22.4865C19.8478 22.4905 19.8478 22.4947 19.8478 22.4989C19.8478 22.5031 19.8478 22.5072 19.8478 22.5115C19.8478 22.5157 19.8478 22.5198 19.8478 22.5241C19.8478 22.5284 19.8478 22.5325 19.8478 22.5368C19.8478 22.5411 19.8478 22.5453 19.8478 22.5496C19.8478 22.5538 19.8478 22.5581 19.8478 22.5625C19.8478 22.5667 19.8478 22.571 19.8478 22.5753C19.8478 22.5797 19.8478 22.5839 19.8478 22.5883C19.8478 22.5926 19.8478 22.597 19.8478 22.6013C19.8478 22.6058 19.8478 22.6101 19.8478 22.6145C19.8478 22.6189 19.8478 22.6232 19.8478 22.6277C19.8478 22.6321 19.8478 22.6365 19.8478 22.641C19.8478 22.6454 19.8478 22.6498 19.8478 22.6543C19.8478 22.6587 19.8478 22.6632 19.8478 22.6677C19.8478 22.6722 19.8478 22.6767 19.8478 22.6811C19.8478 22.6857 19.8478 22.6902 19.8478 22.6947C19.8478 22.6992 19.8478 22.7038 19.8478 22.7084C19.8478 22.7129 19.8478 22.7175 19.8478 22.7221C19.8478 22.7266 19.8478 22.7312 19.8478 22.7358C19.8478 22.7405 19.8478 22.7451 19.8478 22.7497C19.8478 22.7544 19.8478 22.759 19.8478 22.7636C19.8478 22.7683 19.8478 22.773 19.8478 22.7776C19.8478 22.7823 19.8478 22.787 19.8478 22.7917C19.8478 22.7964 19.8478 22.8012 19.8478 22.8058C19.8478 22.8105 19.8478 22.8153 19.8478 22.82C19.8478 22.8248 19.8478 22.8296 19.8478 22.8344C19.8478 22.8391 19.8478 22.8439 19.8478 22.8487C19.8478 22.8535 19.8478 22.8584 19.8478 22.8632C19.8478 22.868 19.8478 22.8728 19.8478 22.8777C19.8478 22.8825 19.8478 22.8874 19.8478 22.8923C19.8478 22.8971 19.8478 22.902 19.8478 22.907C19.8478 22.9118 19.8478 22.9167 19.8478 22.9217C19.8478 22.9266 19.8478 22.9316 19.8478 22.9365C19.8478 22.9414 19.8478 22.9465 19.8478 22.9514C19.8478 22.9564 19.8478 22.9613 19.8478 22.9664C19.8478 22.9713 19.8478 22.9764 19.8478 22.9814C19.8478 22.9865 19.8478 22.9915 19.8478 22.9965C19.8478 23.0016 19.8478 23.0066 19.8478 23.0118C19.8478 23.0168 19.8478 23.0219 19.8478 23.027C19.8478 23.0321 19.8478 23.0372 19.8478 23.0424C19.8478 23.0475 19.8478 23.0526 19.8478 23.0578C19.8478 23.063 19.8478 23.0681 19.8478 23.0733C19.8478 23.0785 19.8478 23.0837 19.8478 23.0889C19.8478 23.0941 19.8478 23.0993 19.8478 23.1045C19.8478 23.1098 19.8478 23.1151 19.8478 23.1203C19.8478 23.1256 19.8478 23.1308 19.8478 23.1361C19.8478 23.1414 19.8478 23.1467 19.8478 23.152C19.8478 23.1573 19.8478 23.1627 19.8478 23.168C19.8478 23.1733 19.8478 23.1787 19.8478 23.1841C19.8478 23.1894 19.8478 23.1948 19.8478 23.2002C19.8478 23.2056 19.8478 23.211 19.8478 23.2165C19.8478 23.2218 19.8478 23.2272 19.8478 23.2327C19.8478 23.2382 19.8478 23.2436 19.8478 23.2491C19.8478 23.2545 19.8478 23.26 19.8478 23.2656C19.8478 23.2711 19.8478 23.2765 19.8478 23.2821C19.8478 23.2876 19.8478 23.2932 19.8478 23.2987C19.8478 23.3043 19.8478 23.3098 19.8478 23.3154C19.8478 23.321 19.8478 23.3265 19.8478 23.3322C19.8478 23.3378 19.8478 23.3434 19.8478 23.3491C19.8478 23.3546 19.8478 23.3603 19.8478 23.366C19.8478 23.3717 19.8478 23.3773 19.8478 23.383C19.8478 23.3887 19.8478 23.3944 19.8478 23.4001C19.8478 23.4058 19.8478 23.4116 19.8478 23.4173C19.8478 23.4231 19.8478 23.4288 19.8478 23.4345C19.8478 23.4403 19.8478 23.4461 19.8478 23.4519C19.8478 23.4577 19.8478 23.4635 19.8478 23.4693C19.8478 23.4751 19.8478 23.481 19.8478 23.4868C19.8478 23.4927 19.8478 23.4985 19.8478 23.5045C19.8478 23.5103 19.8478 23.5162 19.8478 23.5221C19.8478 23.528 19.8478 23.5339 19.8478 23.5398C19.8478 23.5458 19.8478 23.5518 19.8478 23.5578C19.8478 23.5637 19.8478 23.5697 19.8478 23.5757C19.8478 23.5817 19.8478 23.5877 19.8478 23.5937C19.8478 23.5997 19.8478 23.6057 19.8478 23.6118C19.8478 23.6178 19.8478 23.6238 19.8478 23.6299C19.8478 23.636 19.8478 23.6421 19.8478 23.6482C19.8478 23.6543 19.8478 23.6604 19.8478 23.6665C19.8478 23.6726 19.8478 23.6788 19.8478 23.685C19.8478 23.6911 19.8478 23.6973 19.8478 23.7035C19.8478 23.7097 19.8478 23.7158 19.8478 23.7221C19.8478 23.7283 19.8478 23.7345 19.8478 23.7408C19.8478 23.747 19.8478 23.7532 19.8478 23.7596C19.8478 23.7658 19.8478 23.7721 19.8478 23.7784C19.8478 23.7847 19.8478 23.791 19.8478 23.7973C19.8478 23.8037 19.8478 23.81 19.8478 23.8164C19.8478 23.8227 19.8478 23.8291 19.8478 23.8355C19.8478 23.8418 19.8478 23.8483 19.8478 23.8547C19.8478 23.8611 19.8478 23.8675 19.8478 23.8739C19.8478 23.8805 19.8478 23.8869 19.8478 23.8933C19.8478 23.8998 19.8478 23.9063 19.8478 23.9128C19.8478 23.9193 19.8478 23.9258 19.8478 23.9324C19.8478 23.9389 19.8478 23.9454 19.8478 23.952C19.8478 23.9585 19.8478 23.9652 19.8478 23.9718C19.8478 23.9783 19.8478 23.9849 19.8478 23.9915C19.8478 23.9981 19.8478 24.0048 19.8478 24.0114C19.8478 24.0181 19.8478 24.0247 19.8478 24.0314C19.8478 24.0381 19.8478 24.0448 19.8478 24.0515C19.8478 24.0582 19.8478 24.0649 19.8478 24.0717C19.8478 24.0784 19.8478 24.0851 19.8478 24.0919C19.8478 24.0986 19.8478 24.1054 19.8478 24.1123C19.8478 24.1191 19.8478 24.1258 19.8478 24.1327C19.8478 24.1395 19.8478 24.1464 19.8478 24.1532C19.8478 24.16 19.8478 24.1669 19.8478 24.1738C19.8478 24.1807 19.8478 24.1876 19.8478 24.1945C19.8478 24.2014 19.8478 24.2084 19.8478 24.2153C19.8478 24.2222 19.8478 24.2292 19.8478 24.2362C19.8478 24.2432 19.8478 24.2501 19.8478 24.2571C19.8478 24.2641 19.8478 24.2712 19.8478 24.2782C19.8478 24.2852 19.8478 24.2923 19.8478 24.2993C19.8478 24.3064 19.8478 24.3135 19.8478 24.3205C19.8478 24.3277 19.8478 24.3348 19.8478 24.3419C19.8478 24.3491 19.8478 24.3562 19.8478 24.3633C19.8478 24.3705 19.8478 24.3777 19.8478 24.3848C19.8478 24.392 19.8478 24.3992 19.8478 24.4065C19.8478 24.4137 19.8478 24.4209 19.8478 24.4281C19.8478 24.4354 19.8478 24.4426 19.8478 24.4499C19.8478 24.4572 19.8478 24.4645 19.8478 24.4718C19.8478 24.4791 19.8478 24.4865 19.8478 24.4938C19.8478 24.5012 19.8478 24.5085 19.8478 24.5158C19.8478 24.5232 19.8478 24.5306 19.8478 24.538C19.8478 24.5454 19.8478 24.5528 19.8478 24.5603C19.8478 24.5677 19.8478 24.5751 19.8478 24.5826C19.8478 24.5901 19.8478 24.5976 19.8478 24.6051C19.8478 24.6125 19.8478 24.62 19.8478 24.6276C19.8478 24.6351 19.8478 24.6426 19.8478 24.6502C19.8478 24.6578 19.8478 24.6653 19.8478 24.6729C19.8478 24.6805 19.8478 24.6881 19.8478 24.6958C19.8478 24.7033 19.8478 24.711 19.8478 24.7186C19.8478 24.7263 19.8478 24.7339 19.8478 24.7417C19.8478 24.7493 19.8478 24.757 19.8478 24.7647C19.8478 24.7725 19.8478 24.7802 19.8478 24.7879C19.8478 24.7957 19.8478 24.8034 19.8478 24.8112C19.8478 24.819 19.8478 24.8268 19.8478 24.8346C19.8478 24.8424 19.8478 24.8502 19.8478 24.8581C19.8478 24.8659 19.8478 24.8738 19.8478 24.8817C19.8478 24.8895 19.8478 24.8974 19.8478 24.9053C19.8478 24.9132 19.8478 24.9211 19.8478 24.9291C19.8478 24.937 19.8478 24.945 19.8478 24.9529C19.8478 24.9609 19.8478 24.9689 19.8478 24.9769C19.8478 24.9849 19.8478 24.9929 19.8478 25.001C19.8478 25.009 19.8478 25.0171 19.8478 25.0251C19.8478 25.0332 19.8478 25.0412 19.8478 25.0493C19.8478 25.0574 19.8478 25.0656 19.8478 25.0737C19.8478 25.0818 19.8478 25.0899 19.8478 25.0981C19.8478 25.1063 19.8478 25.1145 19.8478 25.1226C19.8478 25.1309 19.8478 25.1391 19.8478 25.1473C19.8478 25.1555 19.8478 25.1638 19.8478 25.172C19.8478 25.1803 19.8478 25.1885 19.8478 25.1969C19.8478 25.2051 19.8478 25.2135 19.8478 25.2218C19.8478 25.2301 19.8478 25.2385 19.8478 25.2468C19.8478 25.2551 19.8478 25.2636 19.8478 25.2719C19.8478 25.2804 19.8478 25.2887 19.8478 25.2972C19.8478 25.3056 19.8478 25.314 19.8478 25.3225C19.8478 25.331 19.8478 25.3394 19.8478 25.3479H21.1522C21.1522 25.3394 21.1522 25.331 21.1522 25.3225C21.1522 25.314 21.1522 25.3056 21.1522 25.2972C21.1522 25.2887 21.1522 25.2804 21.1522 25.2719C21.1522 25.2636 21.1522 25.2551 21.1522 25.2468C21.1522 25.2385 21.1522 25.2301 21.1522 25.2218C21.1522 25.2135 21.1522 25.2051 21.1522 25.1969C21.1522 25.1885 21.1522 25.1803 21.1522 25.172C21.1522 25.1638 21.1522 25.1555 21.1522 25.1473C21.1522 25.1391 21.1522 25.1309 21.1522 25.1226C21.1522 25.1145 21.1522 25.1063 21.1522 25.0981C21.1522 25.0899 21.1522 25.0818 21.1522 25.0737C21.1522 25.0656 21.1522 25.0574 21.1522 25.0493C21.1522 25.0412 21.1522 25.0332 21.1522 25.0251C21.1522 25.0171 21.1522 25.009 21.1522 25.001C21.1522 24.9929 21.1522 24.9849 21.1522 24.9769C21.1522 24.9689 21.1522 24.9609 21.1522 24.9529C21.1522 24.945 21.1522 24.937 21.1522 24.9291C21.1522 24.9211 21.1522 24.9132 21.1522 24.9053C21.1522 24.8974 21.1522 24.8895 21.1522 24.8817C21.1522 24.8738 21.1522 24.8659 21.1522 24.8581C21.1522 24.8502 21.1522 24.8424 21.1522 24.8346C21.1522 24.8268 21.1522 24.819 21.1522 24.8112C21.1522 24.8034 21.1522 24.7957 21.1522 24.7879C21.1522 24.7802 21.1522 24.7725 21.1522 24.7647C21.1522 24.757 21.1522 24.7493 21.1522 24.7417C21.1522 24.7339 21.1522 24.7263 21.1522 24.7186C21.1522 24.711 21.1522 24.7033 21.1522 24.6958C21.1522 24.6881 21.1522 24.6805 21.1522 24.6729C21.1522 24.6653 21.1522 24.6578 21.1522 24.6502C21.1522 24.6426 21.1522 24.6351 21.1522 24.6276C21.1522 24.62 21.1522 24.6125 21.1522 24.6051C21.1522 24.5976 21.1522 24.5901 21.1522 24.5826C21.1522 24.5751 21.1522 24.5677 21.1522 24.5603C21.1522 24.5528 21.1522 24.5454 21.1522 24.538C21.1522 24.5306 21.1522 24.5232 21.1522 24.5158C21.1522 24.5085 21.1522 24.5012 21.1522 24.4938C21.1522 24.4865 21.1522 24.4791 21.1522 24.4718C21.1522 24.4645 21.1522 24.4572 21.1522 24.4499C21.1522 24.4426 21.1522 24.4354 21.1522 24.4281C21.1522 24.4209 21.1522 24.4137 21.1522 24.4065C21.1522 24.3992 21.1522 24.392 21.1522 24.3848C21.1522 24.3777 21.1522 24.3705 21.1522 24.3633C21.1522 24.3562 21.1522 24.3491 21.1522 24.3419C21.1522 24.3348 21.1522 24.3277 21.1522 24.3205C21.1522 24.3135 21.1522 24.3064 21.1522 24.2993C21.1522 24.2923 21.1522 24.2852 21.1522 24.2782C21.1522 24.2712 21.1522 24.2641 21.1522 24.2571C21.1522 24.2501 21.1522 24.2432 21.1522 24.2362C21.1522 24.2292 21.1522 24.2222 21.1522 24.2153C21.1522 24.2084 21.1522 24.2014 21.1522 24.1945C21.1522 24.1876 21.1522 24.1807 21.1522 24.1738C21.1522 24.1669 21.1522 24.16 21.1522 24.1532C21.1522 24.1464 21.1522 24.1395 21.1522 24.1327C21.1522 24.1258 21.1522 24.1191 21.1522 24.1123C21.1522 24.1054 21.1522 24.0986 21.1522 24.0919C21.1522 24.0851 21.1522 24.0784 21.1522 24.0717C21.1522 24.0649 21.1522 24.0582 21.1522 24.0515C21.1522 24.0448 21.1522 24.0381 21.1522 24.0314C21.1522 24.0247 21.1522 24.0181 21.1522 24.0114C21.1522 24.0048 21.1522 23.9981 21.1522 23.9915C21.1522 23.9849 21.1522 23.9783 21.1522 23.9718C21.1522 23.9652 21.1522 23.9585 21.1522 23.952C21.1522 23.9454 21.1522 23.9389 21.1522 23.9324C21.1522 23.9258 21.1522 23.9193 21.1522 23.9128C21.1522 23.9063 21.1522 23.8998 21.1522 23.8933C21.1522 23.8869 21.1522 23.8805 21.1522 23.8739C21.1522 23.8675 21.1522 23.8611 21.1522 23.8547C21.1522 23.8483 21.1522 23.8418 21.1522 23.8355C21.1522 23.8291 21.1522 23.8227 21.1522 23.8164C21.1522 23.81 21.1522 23.8037 21.1522 23.7973C21.1522 23.791 21.1522 23.7847 21.1522 23.7784C21.1522 23.7721 21.1522 23.7658 21.1522 23.7596C21.1522 23.7532 21.1522 23.747 21.1522 23.7408C21.1522 23.7345 21.1522 23.7283 21.1522 23.7221C21.1522 23.7158 21.1522 23.7097 21.1522 23.7035C21.1522 23.6973 21.1522 23.6911 21.1522 23.685C21.1522 23.6788 21.1522 23.6726 21.1522 23.6665C21.1522 23.6604 21.1522 23.6543 21.1522 23.6482C21.1522 23.6421 21.1522 23.636 21.1522 23.6299C21.1522 23.6238 21.1522 23.6178 21.1522 23.6118C21.1522 23.6057 21.1522 23.5997 21.1522 23.5937C21.1522 23.5877 21.1522 23.5817 21.1522 23.5757C21.1522 23.5697 21.1522 23.5637 21.1522 23.5578C21.1522 23.5518 21.1522 23.5458 21.1522 23.5398C21.1522 23.5339 21.1522 23.528 21.1522 23.5221C21.1522 23.5162 21.1522 23.5103 21.1522 23.5045C21.1522 23.4985 21.1522 23.4927 21.1522 23.4868C21.1522 23.481 21.1522 23.4751 21.1522 23.4693C21.1522 23.4635 21.1522 23.4577 21.1522 23.4519C21.1522 23.4461 21.1522 23.4403 21.1522 23.4345C21.1522 23.4288 21.1522 23.4231 21.1522 23.4173C21.1522 23.4116 21.1522 23.4058 21.1522 23.4001C21.1522 23.3944 21.1522 23.3887 21.1522 23.383C21.1522 23.3773 21.1522 23.3717 21.1522 23.366C21.1522 23.3603 21.1522 23.3546 21.1522 23.3491C21.1522 23.3434 21.1522 23.3378 21.1522 23.3322C21.1522 23.3265 21.1522 23.321 21.1522 23.3154C21.1522 23.3098 21.1522 23.3043 21.1522 23.2987C21.1522 23.2932 21.1522 23.2876 21.1522 23.2821C21.1522 23.2765 21.1522 23.2711 21.1522 23.2656C21.1522 23.26 21.1522 23.2545 21.1522 23.2491C21.1522 23.2436 21.1522 23.2382 21.1522 23.2327C21.1522 23.2272 21.1522 23.2218 21.1522 23.2165C21.1522 23.211 21.1522 23.2056 21.1522 23.2002C21.1522 23.1948 21.1522 23.1894 21.1522 23.1841C21.1522 23.1787 21.1522 23.1733 21.1522 23.168C21.1522 23.1627 21.1522 23.1573 21.1522 23.152C21.1522 23.1467 21.1522 23.1414 21.1522 23.1361C21.1522 23.1308 21.1522 23.1256 21.1522 23.1203C21.1522 23.1151 21.1522 23.1098 21.1522 23.1045C21.1522 23.0993 21.1522 23.0941 21.1522 23.0889C21.1522 23.0837 21.1522 23.0785 21.1522 23.0733C21.1522 23.0681 21.1522 23.063 21.1522 23.0578C21.1522 23.0526 21.1522 23.0475 21.1522 23.0424C21.1522 23.0372 21.1522 23.0321 21.1522 23.027C21.1522 23.0219 21.1522 23.0168 21.1522 23.0118C21.1522 23.0066 21.1522 23.0016 21.1522 22.9965C21.1522 22.9915 21.1522 22.9865 21.1522 22.9814C21.1522 22.9764 21.1522 22.9713 21.1522 22.9664C21.1522 22.9613 21.1522 22.9564 21.1522 22.9514C21.1522 22.9465 21.1522 22.9414 21.1522 22.9365C21.1522 22.9316 21.1522 22.9266 21.1522 22.9217C21.1522 22.9167 21.1522 22.9118 21.1522 22.907C21.1522 22.902 21.1522 22.8971 21.1522 22.8923C21.1522 22.8874 21.1522 22.8825 21.1522 22.8777C21.1522 22.8728 21.1522 22.868 21.1522 22.8632C21.1522 22.8584 21.1522 22.8535 21.1522 22.8487C21.1522 22.8439 21.1522 22.8391 21.1522 22.8344C21.1522 22.8296 21.1522 22.8248 21.1522 22.82C21.1522 22.8153 21.1522 22.8105 21.1522 22.8058C21.1522 22.8012 21.1522 22.7964 21.1522 22.7917C21.1522 22.787 21.1522 22.7823 21.1522 22.7776C21.1522 22.773 21.1522 22.7683 21.1522 22.7636C21.1522 22.759 21.1522 22.7544 21.1522 22.7497C21.1522 22.7451 21.1522 22.7405 21.1522 22.7358C21.1522 22.7312 21.1522 22.7266 21.1522 22.7221C21.1522 22.7175 21.1522 22.7129 21.1522 22.7084C21.1522 22.7038 21.1522 22.6992 21.1522 22.6947C21.1522 22.6902 21.1522 22.6857 21.1522 22.6811C21.1522 22.6767 21.1522 22.6722 21.1522 22.6677C21.1522 22.6632 21.1522 22.6587 21.1522 22.6543C21.1522 22.6498 21.1522 22.6454 21.1522 22.641C21.1522 22.6365 21.1522 22.6321 21.1522 22.6277C21.1522 22.6232 21.1522 22.6189 21.1522 22.6145C21.1522 22.6101 21.1522 22.6058 21.1522 22.6013C21.1522 22.597 21.1522 22.5926 21.1522 22.5883C21.1522 22.5839 21.1522 22.5797 21.1522 22.5753C21.1522 22.571 21.1522 22.5667 21.1522 22.5625C21.1522 22.5581 21.1522 22.5538 21.1522 22.5496C21.1522 22.5453 21.1522 22.5411 21.1522 22.5368C21.1522 22.5325 21.1522 22.5284 21.1522 22.5241C21.1522 22.5198 21.1522 22.5157 21.1522 22.5115C21.1522 22.5072 21.1522 22.5031 21.1522 22.4989C21.1522 22.4947 21.1522 22.4905 21.1522 22.4865C21.1522 22.4823 21.1522 22.4781 21.1522 22.474C21.1522 22.4698 21.1522 22.4658 21.1522 22.4617C21.1522 22.4576 21.1522 22.4534 21.1522 22.4494C21.1522 22.4453 21.1522 22.4412 21.1522 22.4372C21.1522 22.4331 21.1522 22.4291 21.1522 22.425C21.1522 22.421 21.1522 22.417 21.1522 22.413C21.1522 22.4089 21.1522 22.4049 21.1522 22.4009C21.1522 22.397 21.1522 22.393 21.1522 22.389C21.1522 22.3851 21.1522 22.3811 21.1522 22.3772C21.1522 22.3732 21.1522 22.3692 21.1522 22.3653C21.1522 22.3614 21.1522 22.3575 21.1522 22.3536C21.1522 22.3497 21.1522 22.3458 21.1522 22.3419C21.1522 22.338 21.1522 22.3342 21.1522 22.3303C21.1522 22.3265 21.1522 22.3226 21.1522 22.3188C21.1522 22.315 21.1522 22.3111 21.1522 22.3073C21.1522 22.3035 21.1522 22.2997 21.1522 22.2959C21.1522 22.2921 21.1522 22.2884 21.1522 22.2845C21.1522 22.2808 21.1522 22.2771 21.1522 22.2733C21.1522 22.2696 21.1522 22.2658 21.1522 22.2621C21.1522 22.2584 21.1522 22.2547 21.1522 22.251C21.1522 22.2472 21.1522 22.2436 21.1522 22.2399C21.1522 22.2362 21.1522 22.2325 21.1522 22.2289C21.1522 22.2252 21.1522 22.2216 21.1522 22.2179C21.1522 22.2144 21.1522 22.2107 21.1522 22.2071C21.1522 22.2035 21.1522 22.1998 21.1522 22.1963C21.1522 22.1927 21.1522 22.1892 21.1522 22.1855C21.1522 22.1819 21.1522 22.1784 21.1522 22.1749C21.1522 22.1713 21.1522 22.1678 21.1522 22.1643C21.1522 22.1607 21.1522 22.1572 21.1522 22.1537C21.1522 22.1502 21.1522 22.1467 21.1522 22.1432C21.1522 22.1398 21.1522 22.1363 21.1522 22.1328C21.1522 22.1293 21.1522 22.1258 21.1522 22.1225C21.1522 22.119 21.1522 22.1156 21.1522 22.1121C21.1522 22.1087 21.1522 22.1053 21.1522 22.1019C21.1522 22.0985 21.1522 22.0951 21.1522 22.0918C21.1522 22.0884 21.1522 22.085 21.1522 22.0816C21.1522 22.0783 21.1522 22.0749 21.1522 22.0716C21.1522 22.0682 21.1522 22.0649 21.1522 22.0616C21.1522 22.0583 21.1522 22.055 21.1522 22.0517C21.1522 22.0484 21.1522 22.0451 21.1522 22.0418C21.1522 22.0385 21.1522 22.0352 21.1522 22.032C21.1522 22.0287 21.1522 22.0255 21.1522 22.0223C21.1522 22.0191 21.1522 22.0158 21.1522 22.0126C21.1522 22.0094 21.1522 22.0062 21.1522 22.003C21.1522 21.9998 21.1522 21.9966 21.1522 21.9934C21.1522 21.9903 21.1522 21.9871 21.1522 21.9839C21.1522 21.9808 21.1522 21.9777 21.1522 21.9745C21.1522 21.9714 21.1522 21.9683 21.1522 21.9652C21.1522 21.962 21.1522 21.959 21.1522 21.9558C21.1522 21.9527 21.1522 21.9497 21.1522 21.9466C21.1522 21.9435 21.1522 21.9405 21.1522 21.9374C21.1522 21.9344 21.1522 21.9313 21.1522 21.9283C21.1522 21.9252 21.1522 21.9222 21.1522 21.9192C21.1522 21.9162 21.1522 21.9132 21.1522 21.9102C21.1522 21.9072 21.1522 21.9042 21.1522 21.9012C21.1522 21.8983 21.1522 21.8953 21.1522 21.8924C21.1522 21.8894 21.1522 21.8865 21.1522 21.8835C21.1522 21.8805 21.1522 21.8777 21.1522 21.8747C21.1522 21.8718 21.1522 21.8689 21.1522 21.866C21.1522 21.8632 21.1522 21.8603 21.1522 21.8573C21.1522 21.8545 21.1522 21.8516 21.1522 21.8488C21.1522 21.8459 21.1522 21.8431 21.1522 21.8402C21.1522 21.8374 21.1522 21.8345 21.1522 21.8318C21.1522 21.8289 21.1522 21.8261 21.1522 21.8233C21.1522 21.8205 21.1522 21.8177 21.1522 21.815C21.1522 21.8122 21.1522 21.8094 21.1522 21.8066C21.1522 21.8038 21.1522 21.8011 21.1522 21.7984C21.1522 21.7956 21.1522 21.7929 21.1522 21.7902C21.1522 21.7874 21.1522 21.7847 21.1522 21.782C21.1522 21.7793 21.1522 21.7766 21.1522 21.7739C21.1522 21.7712 21.1522 21.7685 21.1522 21.7659C21.1522 21.7632 21.1522 21.7605 21.1522 21.7579C21.1522 21.7552 21.1522 21.7526 21.1522 21.75C21.1522 21.7473 21.1522 21.7447 21.1522 21.7421C21.1522 21.7395 21.1522 21.7369 21.1522 21.7343C21.1522 21.7318 21.1522 21.7291 21.1522 21.7265C21.1522 21.724 21.1522 21.7214 21.1522 21.7189C21.1522 21.7163 21.1522 21.7138 21.1522 21.7112C21.1522 21.7087 21.1522 21.7061 21.1522 21.7036C21.1522 21.7011 21.1522 21.6986 21.1522 21.6961C21.1522 21.6936 21.1522 21.6911 21.1522 21.6886C21.1522 21.6861 21.1522 21.6837 21.1522 21.6812C21.1522 21.6787 21.1522 21.6763 21.1522 21.6738C21.1522 21.6713 21.1522 21.6689 21.1522 21.6665C21.1522 21.664 21.1522 21.6616 21.1522 21.6592C21.1522 21.6568 21.1522 21.6544 21.1522 21.652C21.1522 21.6496 21.1522 21.6472 21.1522 21.6448C21.1522 21.6425 21.1522 21.6401 21.1522 21.6377C21.1522 21.6353 21.1522 21.633 21.1522 21.6306C21.1522 21.6283 21.1522 21.626 21.1522 21.6237C21.1522 21.6213 21.1522 21.619 21.1522 21.6167C21.1522 21.6144 21.1522 21.6121 21.1522 21.6098C21.1522 21.6075 21.1522 21.6052 21.1522 21.603C21.1522 21.6006 21.1522 21.5984 21.1522 21.5961C21.1522 21.5938 21.1522 21.5917 21.1522 21.5894C21.1522 21.5872 21.1522 21.5849 21.1522 21.5827C21.1522 21.5805 21.1522 21.5783 21.1522 21.576C21.1522 21.5738 21.1522 21.5717 21.1522 21.5695C21.1522 21.5672 21.1522 21.5651 21.1522 21.5629C21.1522 21.5607 21.1522 21.5585 21.1522 21.5565C21.1522 21.5543 21.1522 21.5521 21.1522 21.55C21.1522 21.5478 21.1522 21.5457 21.1522 21.5436C21.1522 21.5415 21.1522 21.5393 21.1522 21.5372C21.1522 21.5351 21.1522 21.5331 21.1522 21.531C21.1522 21.5289 21.1522 21.5268 21.1522 21.5247C21.1522 21.5226 21.1522 21.5205 21.1522 21.5185C21.1522 21.5165 21.1522 21.5144 21.1522 21.5124C21.1522 21.5103 21.1522 21.5083 21.1522 21.5063C21.1522 21.5042 21.1522 21.5022 21.1522 21.5002C21.1522 21.4982 21.1522 21.4962 21.1522 21.4942C21.1522 21.4922 21.1522 21.4902 21.1522 21.4883C21.1522 21.4863 21.1522 21.4843 21.1522 21.4824C21.1522 21.4804 21.1522 21.4785 21.1522 21.4765C21.1522 21.4745 21.1522 21.4726 21.1522 21.4707C21.1522 21.4687 21.1522 21.4668 21.1522 21.4649C21.1522 21.463 21.1522 21.4611 21.1522 21.4592C21.1522 21.4573 21.1522 21.4554 21.1522 21.4535C21.1522 21.4517 21.1522 21.4498 21.1522 21.4479C21.1522 21.446 21.1522 21.4442 21.1522 21.4424C21.1522 21.4405 21.1522 21.4386 21.1522 21.4368C21.1522 21.435 21.1522 21.4332 21.1522 21.4313C21.1522 21.4295 21.1522 21.4277 21.1522 21.4259C21.1522 21.4241 21.1522 21.4223 21.1522 21.4205C21.1522 21.4187 21.1522 21.417 21.1522 21.4151C21.1522 21.4134 21.1522 21.4116 21.1522 21.4098C21.1522 21.4081 21.1522 21.4064 21.1522 21.4046C21.1522 21.4029 21.1522 21.4012 21.1522 21.3994C21.1522 21.3977 21.1522 21.3959 21.1522 21.3943C21.1522 21.3925 21.1522 21.3908 21.1522 21.3892C21.1522 21.3874 21.1522 21.3858 21.1522 21.384C21.1522 21.3824 21.1522 21.3807 21.1522 21.3791C21.1522 21.3773 21.1522 21.3757 21.1522 21.374C21.1522 21.3724 21.1522 21.3707 21.1522 21.3691C21.1522 21.3674 21.1522 21.3658 21.1522 21.3642C21.1522 21.3625 21.1522 21.361 21.1522 21.3593C21.1522 21.3578 21.1522 21.3561 21.1522 21.3545C21.1522 21.3529 21.1522 21.3513 21.1522 21.3498C21.1522 21.3482 21.1522 21.3466 21.1522 21.3451C21.1522 21.3435 21.1522 21.3419 21.1522 21.3404C21.1522 21.3388 21.1522 21.3372 21.1522 21.3357C21.1522 21.3342 21.1522 21.3326 21.1522 21.3312C21.1522 21.3296 21.1522 21.3281 21.1522 21.3265C21.1522 21.3251 21.1522 21.3236 21.1522 21.322C21.1522 21.3205 21.1522 21.3191 21.1522 21.3176C21.1522 21.3161 21.1522 21.3146 21.1522 21.3131C21.1522 21.3117 21.1522 21.3102 21.1522 21.3088C21.1522 21.3073 21.1522 21.3058 21.1522 21.3045C21.1522 21.303 21.1522 21.3015 21.1522 21.3001C21.1522 21.2987 21.1522 21.2972 21.1522 21.2958C21.1522 21.2945 21.1522 21.293 21.1522 21.2916C21.1522 21.2902 21.1522 21.2888 21.1522 21.2874C21.1522 21.286 21.1522 21.2846 21.1522 21.2833C21.1522 21.2819 21.1522 21.2805 21.1522 21.2792C21.1522 21.2778 21.1522 21.2765 21.1522 21.2752C21.1522 21.2738 21.1522 21.2725 21.1522 21.2711C21.1522 21.2698 21.1522 21.2685 21.1522 21.2672C21.1522 21.2658 21.1522 21.2645 21.1522 21.2631C21.1522 21.2618 21.1522 21.2605 21.1522 21.2592C21.1522 21.2579 21.1522 21.2567 21.1522 21.2554C21.1522 21.2541 21.1522 21.2528 21.1522 21.2516C21.1522 21.2503 21.1522 21.2491 21.1522 21.2478C21.1522 21.2465 21.1522 21.2452 21.1522 21.244C21.1522 21.2428 21.1522 21.2415 21.1522 21.2403C21.1522 21.2391 21.1522 21.2378 21.1522 21.2366C21.1522 21.2354 21.1522 21.2342 21.1522 21.233C21.1522 21.2318 21.1522 21.2305 21.1522 21.2294C21.1522 21.2282 21.1522 21.227 21.1522 21.2258C21.1522 21.2246 21.1522 21.2235 21.1522 21.2223C21.1522 21.2211 21.1522 21.2199 21.1522 21.2188C21.1522 21.2177 21.1522 21.2165 21.1522 21.2153C21.1522 21.2142 21.1522 21.2131 21.1522 21.2119C21.1522 21.2108 21.1522 21.2097 21.1522 21.2085C21.1522 21.2074 21.1522 21.2063 21.1522 21.2052C21.1522 21.2041 21.1522 21.203 21.1522 21.2019C21.1522 21.2008 21.1522 21.1998 21.1522 21.1986C21.1522 21.1976 21.1522 21.1965 21.1522 21.1954C21.1522 21.1943 21.1522 21.1932 21.1522 21.1922C21.1522 21.1911 21.1522 21.1901 21.1522 21.1891C21.1522 21.188 21.1522 21.187 21.1522 21.1859C21.1522 21.1849 21.1522 21.1838 21.1522 21.1828C21.1522 21.1818 21.1522 21.1807 21.1522 21.1798C21.1522 21.1787 21.1522 21.1777 21.1522 21.1767C21.1522 21.1757 21.1522 21.1747 21.1522 21.1738C21.1522 21.1727 21.1522 21.1718 21.1522 21.1707C21.1522 21.1698 21.1522 21.1688 21.1522 21.1678C21.1522 21.1669 21.1522 21.1659 21.1522 21.165C21.1522 21.164 21.1522 21.1631 21.1522 21.1621C21.1522 21.1612 21.1522 21.1602 21.1522 21.1592C21.1522 21.1583 21.1522 21.1574 21.1522 21.1565C21.1522 21.1555 21.1522 21.1546 21.1522 21.1537C21.1522 21.1528 21.1522 21.1518 21.1522 21.151C21.1522 21.1501 21.1522 21.1491 21.1522 21.1483C21.1522 21.1474 21.1522 21.1465 21.1522 21.1456C21.1522 21.1447 21.1522 21.1438 21.1522 21.143C21.1522 21.1421 21.1522 21.1412 21.1522 21.1404C21.1522 21.1395 21.1522 21.1387 21.1522 21.1378C21.1522 21.137 21.1522 21.1361 21.1522 21.1353C21.1522 21.1345 21.1522 21.1336 21.1522 21.1328C21.1522 21.1319 21.1522 21.1312 21.1522 21.1303C21.1522 21.1295 21.1522 21.1287 21.1522 21.1278C21.1522 21.1271 21.1522 21.1263 21.1522 21.1255C21.1522 21.1246 21.1522 21.1238 21.1522 21.1231C21.1522 21.1223 21.1522 21.1215 21.1522 21.1207C21.1522 21.1199 21.1522 21.1192 21.1522 21.1185C21.1522 21.1177 21.1522 21.1169 21.1522 21.1161C21.1522 21.1154 21.1522 21.1146 21.1522 21.1138C21.1522 21.1132 21.1522 21.1124 21.1522 21.1117C21.1522 21.1109 21.1522 21.1102 21.1522 21.1094C21.1522 21.1087 21.1522 21.108 21.1522 21.1072C21.1522 21.1065 21.1522 21.1058 21.1522 21.1052C21.1522 21.1045 21.1522 21.1037 21.1522 21.103C21.1522 21.1023 21.1522 21.1016 21.1522 21.1009C21.1522 21.1002 21.1522 21.0996 21.1522 21.0989C21.1522 21.0982 21.1522 21.0975 21.1522 21.0968C21.1522 21.0962 21.1522 21.0955 21.1522 21.0948C21.1522 21.0942 21.1522 21.0935 21.1522 21.0929C21.1522 21.0922 21.1522 21.0916 21.1522 21.0909C21.1522 21.0903 21.1522 21.0897 21.1522 21.089C21.1522 21.0884 21.1522 21.0878 21.1522 21.0871C21.1522 21.0865 21.1522 21.0858 21.1522 21.0852C21.1522 21.0846 21.1522 21.084 21.1522 21.0834C21.1522 21.0828 21.1522 21.0822 21.1522 21.0816C21.1522 21.081 21.1522 21.0804 21.1522 21.0798C21.1522 21.0792 21.1522 21.0786 21.1522 21.078C21.1522 21.0775 21.1522 21.0769 21.1522 21.0763C21.1522 21.0758 21.1522 21.0752 21.1522 21.0746C21.1522 21.074 21.1522 21.0735 21.1522 21.0729C21.1522 21.0724 21.1522 21.0718 21.1522 21.0712C21.1522 21.0707 21.1522 21.0702 21.1522 21.0697C21.1522 21.0691 21.1522 21.0685 21.1522 21.068C21.1522 21.0675 21.1522 21.067 21.1522 21.0665C21.1522 21.0659 21.1522 21.0654 21.1522 21.0649C21.1522 21.0644 21.1522 21.0638 21.1522 21.0634C21.1522 21.0629 21.1522 21.0624 21.1522 21.0618C21.1522 21.0614 21.1522 21.0609 21.1522 21.0604C21.1522 21.0599 21.1522 21.0594 21.1522 21.0589C21.1522 21.0585 21.1522 21.0579 21.1522 21.0575C21.1522 21.0571 21.1522 21.0565 21.1522 21.0561C21.1522 21.0556 21.1522 21.0552 21.1522 21.0547C21.1522 21.0542 21.1522 21.0538 21.1522 21.0533C21.1522 21.0529 21.1522 21.0525 21.1522 21.052C21.1522 21.0516 21.1522 21.0511 21.1522 21.0506C21.1522 21.0502 21.1522 21.0498 21.1522 21.0494C21.1522 21.049 21.1522 21.0485 21.1522 21.0481C21.1522 21.0477 21.1522 21.0472 21.1522 21.0469C21.1522 21.0465 21.1522 21.046 21.1522 21.0456C21.1522 21.0452 21.1522 21.0448 21.1522 21.0444C21.1522 21.044 21.1522 21.0436 21.1522 21.0432C21.1522 21.0428 21.1522 21.0425 21.1522 21.042C21.1522 21.0417 21.1522 21.0413 21.1522 21.0409C21.1522 21.0405 21.1522 21.0402 21.1522 21.0398C21.1522 21.0394 21.1522 21.0391 21.1522 21.0387C21.1522 21.0384 21.1522 21.0379 21.1522 21.0376C21.1522 21.0372 21.1522 21.0369 21.1522 21.0365C21.1522 21.0362 21.1522 21.0358 21.1522 21.0355C21.1522 21.0352 21.1522 21.0348 21.1522 21.0345C21.1522 21.0341 21.1522 21.0338 21.1522 21.0335C21.1522 21.0331 21.1522 21.0328 21.1522 21.0325C21.1522 21.0322 21.1522 21.0318 21.1522 21.0315C21.1522 21.0312 21.1522 21.0309 21.1522 21.0306C21.1522 21.0303 21.1522 21.03 21.1522 21.0297C21.1522 21.0293 21.1522 21.0291 21.1522 21.0288C21.1522 21.0285 21.1522 21.0282 21.1522 21.0278C21.1522 21.0276 21.1522 21.0273 21.1522 21.027C21.1522 21.0267 21.1522 21.0272 21.1522 21.027C21.1522 21.0266 21.1522 21.0256 21.1522 21.0253C21.1522 21.0251 21.1522 21.0256 21.1522 21.0253C21.1522 21.0251 21.1522 21.024 21.1522 21.0238C21.1522 21.0235 21.1522 21.024 21.1522 21.0238C21.1522 21.0235 21.1522 21.0225 21.1522 21.0222C21.1522 21.0219 21.1522 21.0225 21.1522 21.0222C21.1522 21.0219 21.1522 21.021 21.1522 21.0207C21.1522 21.0205 21.1522 21.0209 21.1522 21.0207C21.1522 21.0205 21.1522 21.0195 21.1522 21.0193C21.1522 21.0191 21.1522 21.0196 21.1522 21.0193C21.1522 21.0191 21.1522 21.0182 21.1522 21.0179C21.1522 21.0178 21.1522 21.0181 21.1522 21.0179C21.1522 21.0178 21.1522 21.0169 21.1522 21.0167C21.1522 21.0165 21.1522 21.0169 21.1522 21.0167C21.1522 21.0165 21.1522 21.0157 21.1522 21.0155C21.1522 21.0153 21.1522 21.0157 21.1522 21.0155C21.1522 21.0153 21.1522 21.0145 21.1522 21.0144C21.1522 21.0141 21.1522 21.0145 21.1522 21.0144C21.1522 21.0142 21.1522 21.0134 21.1522 21.0132C21.1522 21.0131 21.1522 21.0134 21.1522 21.0132C21.1522 21.0131 21.1522 21.0124 21.1522 21.0122C21.1522 21.012 21.1522 21.0124 21.1522 21.0122C21.1522 21.012 21.1522 21.0114 21.1522 21.0112C21.1522 21.0111 21.1522 21.0114 21.1522 21.0112C21.1522 21.0112 21.1522 21.0105 21.1522 21.0103C21.1522 21.0101 21.1522 21.0091 21.1522 21.009C21.1522 21.0089 21.1522 21.0079 21.1522 21.0078C21.1522 21.0078 21.1522 21.0069 21.1522 21.0068C21.1522 21.0067 21.1522 21.0059 21.1522 21.0058C21.1522 21.0057 21.1522 21.0051 21.1522 21.0049C21.1522 21.0048 21.1522 21.004 21.1522 21.0039C21.1522 21.0038 21.1522 21.004 21.1522 21.0039C21.1522 21.0038 21.1522 21.0031 21.1522 21.0031C21.1522 21.003 21.1522 21.0021 21.1522 21.002C21.1522 21.002 21.1522 21.0012 21.1522 21.0011C21.1522 21.0011 21.1522 21.0001 21.1522 21.0001H20.5ZM21.1522 21.0001V16.6523H19.8478V21.0001H21.1522Z" fill="black"/>
</svg>
